<svg xmlns="http://www.w3.org/2000/svg" viewBox="0 0 2001 2001">
  <defs>
    <style>
      .cls-1 {
        fill: #fff;
      }

      .cls-2 {
        fill: orange;
        stroke: #000;
        stroke-miterlimit: 10;
      }

      .cls-3 {
        fill: #afabac;
      }

      .cls-4 {
        fill: #f1f2f2;
      }

      .cls-5 {
        fill: #00bed1;
      }

      .cls-6 {
        fill: #193053;
      }

      .cls-7 {
        fill: #b35e2c;
      }

      .cls-8 {
        fill: #008ba5;
      }

      .cls-9 {
        fill: #ffb792;
      }

      .cls-10 {
        fill: #f04f4c;
      }

      .cls-11 {
        fill: #dc7e3e;
      }

      .cls-12 {
        fill: #ffc827;
      }
    </style>
  </defs>
  <g id="Background">
    <rect class="cls-1" x="0.5" y="0.5" width="2000" height="2000"/>
    <rect class="cls-2" x="0.5" y="0.5" width="2000" height="2000"/>
  </g>
  <g id="Elements">
    <g>
      <g>
        <g>
          <path class="cls-1" d="M1723.39,579.17c4.43-33.82-41-61.64-75.16-64.53-16.28-1.38-33.19,1.23-48.62-4.41-63.16-36-60.73-110.63-155.47-60.73-85.62,53.25-81.36,14.44-141.41,34.37-15,8.79-22.82,26.91-36.62,37.61-27.94,21.35-66.95,7.52-97.23,22.11-15.25,7.33-27.87,24.28-24.71,41.59Z" transform="translate(0.5 0.5)"/>
          <path class="cls-1" d="M1067.44,711c5.62-42.85-52-78.1-95.22-81.77-20.63-1.74-42.06,1.57-61.6-5.59-80-45.55-77-140.17-197-76.94C605.16,614.17,610.55,565,534.47,590.25c-19,11.13-28.91,34.1-46.4,47.65-35.4,27.05-84.83,9.53-123.18,28-19.33,9.29-35.32,30.77-31.31,52.69Z" transform="translate(0.5 0.5)"/>
          <path class="cls-1" d="M932.32,1187.2c5-38.28-46.4-69.76-85-73-18.43-1.56-37.57,1.4-55-5-71.48-40.69-68.73-125.2-175.94-68.73-96.89,60.26-92.07,16.35-160,38.9-16.95,10-25.82,30.46-41.44,42.56-31.62,24.16-75.77,8.51-110,25-17.26,8.31-31.54,27.49-28,47.07Z" transform="translate(0.5 0.5)"/>
          <path class="cls-1" d="M1632.49,850.86c5-38.27-46.4-69.76-85-73-18.43-1.56-37.57,1.4-55-5-71.48-40.68-68.73-125.19-175.94-68.72-96.89,60.26-92.07,16.34-160,38.89-17,10-25.82,30.46-41.44,42.56-31.62,24.17-75.77,8.52-110,25-17.26,8.3-31.55,27.48-28,47.07Z" transform="translate(0.5 0.5)"/>
        </g>
        <g>
          <path class="cls-3" d="M1065.73,1839c315.53,53.35,709,134.13,774.57-274.85-28.09,27.64-50.83,58.68-72.54,91.56a510.06,510.06,0,0,0-.89-61.73c-.62-8.1-2.59-17.68-10.29-19.94-9.77-2.85-18.64,8.4-23.27,18.06a290.94,290.94,0,0,0-26.14,90.7c-10.33-71.75-30.66-145.37-82.68-193.18-13.57-12.47-30.17-23.26-49.33-23.51-35.62-.46-63.79,34.14-81,66.69a423.86,423.86,0,0,0-49.33,190.8,37.8,37.8,0,0,1-5.09-13.07c9-35.43,11.36-72,6.4-107.14-2.2-15.62-6.89-32.51-20.43-40-19.88-11-46,4.28-63.74,21.16a404.33,404.33,0,0,0-28.75,30.52c-4.6-4.56-10.21-7.18-16.53-4.84-10.73,4-12.33,18.41-11.3,29.39q.45,4.89,1,9.75c-7.29,10.09-14.34,20.42-21.29,30.93a510.06,510.06,0,0,0-.89-61.73c-.61-8.1-2.58-17.68-10.29-19.94-9.76-2.85-18.64,8.4-23.27,18.06a290.94,290.94,0,0,0-26.14,90.7c-10.32-71.75-30.66-145.37-82.68-193.18-13.57-12.47-30.17-23.26-49.32-23.51-35.62-.46-63.79,34.14-81,66.69a423.9,423.9,0,0,0-49.33,190.8c-5.72-8.77-6.4-20.06-7-30.83s-1.32-22.07-7.16-30.76c-5.69-8.45-17.9-13.17-27.25-7.72q-1.06-12.64-3.32-25.34c-2.87-16-8.3-33.73-22.3-43.81-20.55-14.8-46.37-4.63-63.59,8.76-29.27,22.76-52.15,50.56-73.81,80.58a511.17,511.17,0,0,0-3.42-61.7c-1-8.19-3.34-18.12-11.22-21.86-10-4.73-18.51,4.77-22.79,13.49-12.81,26.09-20.2,55.14-22.74,85.35-13.37-73.51-36.93-150.81-91.49-208.52-14.23-15-31.46-29-50.84-33-36-7.35-63.12,21.69-79.16,50.81-29.75,54-43.46,115.09-42.11,180.62-6.14-9.84-7.28-21.22-8.28-32.07s-2.24-22.25-8.5-32-19.32-17-28.62-12.65c-9.84,4.58-10.13,18.23-8.91,29.73,3,28.45,7.79,58.3,15.56,86.59q-32-77.91-68.91-154.36c-5.45-11.27-15.17-25-26.55-23-10.68,1.89-11.71,16-10.23,27.11,7.52,56.54,25.51,112.07,57.19,163.16-28.79-43.25-72.68-77.95-120.77-95.16-19.76-7.08-41.25-11.08-60.22-8.17,57.08,248.5,347,263.18,591.39,199.23A734.74,734.74,0,0,1,1065.73,1839Z" transform="translate(0.5 0.5)"/>
          <g>
            <path class="cls-1" d="M1433.76,1739.85q-8.17-29.13-14.78-58.79c-.9-4.07-7.3-1.8-6.39,2.26a1117.5,1117.5,0,0,0,64.43,199c2.41-.13,4.81-.26,7.21-.41A1105.89,1105.89,0,0,1,1433.76,1739.85Z" transform="translate(0.5 0.5)"/>
            <path class="cls-1" d="M1561.64,1872.27q1.06-55.95,2.14-111.88a755.87,755.87,0,0,1,68.85-71.28c3.29-3-1.43-7.23-4.68-4.28a753,753,0,0,0-64,65.71l1.85-97.1c4.8-3.2,84.65-79.52,59.18-71.45a500.87,500.87,0,0,1-59,62.73c.89-46.47,1.85-96.72,2.73-142.94.08-4.25-6.55-3.72-6.63.53q-.78,41.28-1.57,82.57l-37.21-33.47c-3-2.73-7.73,2.3-4.69,5,.73.46,40.86,37.12,41.73,37.35l-2.07,108.56-56.78-44c-3.21-2.49-7.92,2.52-4.68,5,.73.39,60.44,47.2,61.3,47.35q-1.56,81.4-3.11,162.81C1557.22,1873.12,1559.44,1872.7,1561.64,1872.27Z" transform="translate(0.5 0.5)"/>
            <path class="cls-1" d="M1745.91,1603.37c-17.64,84.05-50,165.93-95.21,241.06q5.16-2.34,10.22-4.84a793.64,793.64,0,0,0,71-158.23C1733.08,1676.2,1763.8,1584,1745.91,1603.37Z" transform="translate(0.5 0.5)"/>
            <path class="cls-1" d="M1817.76,1623.79c-.4-4.15-7-3.66-6.63.53,1.29,12.29,2.61,24.65,4.5,36.84q2.5-6.83,4.86-13.9Q1818.9,1635.58,1817.76,1623.79Z" transform="translate(0.5 0.5)"/>
            <path class="cls-1" d="M1350.85,1710q-12.51-34.4-23.24-69.5c-1.21-4-7.6-1.72-6.39,2.26a1391,1391,0,0,0,98.07,239c.25.48.51,1,.76,1.45l7.83.1A1371.48,1371.48,0,0,1,1350.85,1710Z" transform="translate(0.5 0.5)"/>
            <path class="cls-1" d="M1297.65,1805q-.15,34.85-.31,69.68l6.62.74q.16-35.47.31-70.95C1304.29,1800.18,1297.67,1800.71,1297.65,1805Z" transform="translate(0.5 0.5)"/>
            <path class="cls-1" d="M1222.35,1801.61l7.11-47.19c1.08-4.2-5.33-5.46-6.39-1.24q-3.16,21-6.32,41.93c-11.25-12.94-22.23-26.12-32.72-39.69-26.76-9.77,55.14,73.52,58.74,78.22q-35.82-2.92-71-9.09c-25,9.84,72.5,15.27,77.94,16.3q16.23,16.49,33.31,32.1,5.94.72,11.88,1.41A897.33,897.33,0,0,1,1222.35,1801.61Z" transform="translate(0.5 0.5)"/>
            <path class="cls-1" d="M555.87,1764a530.92,530.92,0,0,1,66.72-57.73c3.2-2.34-1.74-7.49-4.91-5.18a532.48,532.48,0,0,0-62,53.12l-2.08-96.42c4.73-2.25,82.37-62.88,56.93-59.77a352.45,352.45,0,0,1-57.12,51.11c-1-46.13-2.08-96-3.07-141.93-.09-4.22-6.77-5-6.68-.75l1.77,82-39-40.55c-3.18-3.32-7.72.79-4.53,4.11.76.59,42.83,44.89,43.71,45.28l2.34,107.8-59.21-54.84c-3.36-3.1-7.91,1-4.53,4.11.76.53,63.05,58.72,63.92,59q1.85,85.52,3.7,171,3.32-.12,6.66-.28Q557.17,1824,555.87,1764Z" transform="translate(0.5 0.5)"/>
            <path class="cls-1" d="M288.55,1756.93l2.61,71.3c-27.66-28.58-54.11-58.27-78.89-89.2q2.64-22.83,5.27-45.65c.92-4-5.62-6.47-6.51-2.47q-2.34,20.28-4.69,40.57-14.42-18.26-28.2-37,5,13.23,10.93,25.41c19,24.19,43.17,52.17,45.16,55-4-1.08-8-2.2-12-3.33q3.58,4.35,7.34,8.51c6.38,1.74,10.87,3,11.93,3.35q15.93,18.24,32.6,35.87,11.52,8.07,23.89,15.06-1.39-38.34-2.8-76.69C295.08,1753.46,288.4,1752.7,288.55,1756.93Z" transform="translate(0.5 0.5)"/>
            <path class="cls-1" d="M733.65,1642.68c-15.29,85.25-47.46,164.87-94.4,233.83q4.69-.66,9.39-1.36a600.85,600.85,0,0,0,74.09-157.44C723.64,1712.79,751,1626.83,733.65,1642.68Z" transform="translate(0.5 0.5)"/>
            <path class="cls-1" d="M784.57,1780.64a3.54,3.54,0,0,0,.81.29c27.23,4.47,54.13.83,76.87-10.33,3.59-1.76,0-7.82-3.61-6-20.85,10.23-45.14,13.7-70,10.26,19-28.28,37.34-57.06,54.44-86.67,4.5,1.34,63.21.8,42.16-8.89a154.64,154.64,0,0,1-38.42,2.53c9.7-16.66,19.23-33.43,28.38-50.44,1.88-3.49-4-7.46-5.9-4q-25.8,47.94-54.56,94c-3-14.8-5.55-29.61-7.55-44.43-.57-4.21-7.25-5-6.68-.75,2.55,17.66,5.15,35.48,9.36,53q-43.55,69.06-93.52,133.37,5.44-1.2,10.88-2.46Q757,1821.3,784.57,1780.64Z" transform="translate(0.5 0.5)"/>
            <path class="cls-1" d="M423.54,1718.35q-9.44-30.61-17.33-61.44c-1.09-4.23-7.46-3.21-6.37,1a1356.79,1356.79,0,0,0,76.37,217.82c1.15,2.57,2.34,5.14,3.51,7.7,2.34.16,4.7.31,7,.44A1367.09,1367.09,0,0,1,423.54,1718.35Z" transform="translate(0.5 0.5)"/>
            <path class="cls-1" d="M338.49,1672.61q-14.06-36.7-26.34-73.77c-1.38-4.17-7.76-3.18-6.37,1A1756.4,1756.4,0,0,0,414.7,1857q5.26,10.14,10.7,20.22,3.86.64,7.76,1.23A1761.73,1761.73,0,0,1,338.49,1672.61Z" transform="translate(0.5 0.5)"/>
          </g>
        </g>
      </g>
      <g>
        <path class="cls-4" d="M615.1,1549.73c83.87,109.24,21.62,193.9,21.62,193.9s105.17-56,31.12-173.39Z" transform="translate(0.5 0.5)"/>
        <g>
          <path class="cls-5" d="M528.56,1241.25c-43.33,45.87-86.66,183.5-86.66,201.34s51,127.44,51,127.44l58.62,25.49,150.37-89.21s17.84-124.88,5.1-132.53S528.56,1241.25,528.56,1241.25Z" transform="translate(0.5 0.5)"/>
          <path class="cls-6" d="M498.61,1331.41c-15.63,64.72-40.78,99.34-40.78,116.12s43.84,119.88,43.84,119.88l50.42,24,129.34-83.91s15.34-117.48,4.38-124.67S498.61,1331.41,498.61,1331.41Z" transform="translate(0.5 0.5)"/>
        </g>
        <path class="cls-6" d="M803.14,1711.17c-12.74,56.08-45.88,141.56-45.88,141.56s175-33.2,281.84-11.72C1303,1894.08,1443,1883.79,1443,1883.79s-35.76-144.58-56.15-167.52-48.43-99.4-58.62-96.85S803.14,1711.17,803.14,1711.17Z" transform="translate(0.5 0.5)"/>
        <path class="cls-6" d="M978.21,1138.11l-.44-.4c-48.43-40.78-270.15-39.81-270.15-39.81l-23-120.76-100.51,63.57c-18.61,42.38-34.33,86.59-47,127.44,1.89,48.3,8.61,92.51,12.44,102.1,5.1,12.74,86.66,178.41,86.66,178.41l61.17,117.24s20.75,10.08,43.1,20.23c45.26-9.38,105.11-22.19,109.82-25.33C856.4,1556.75,942.9,1260,978.21,1138.11Z" transform="translate(0.5 0.5)"/>
        <g>
          <path class="cls-7" d="M628.59,954.2c-84.11,137.64-130,351.73-130,377.21s43.32,221.74,56.07,221.74,89.2-17.84,96.85-10.19,38.23,53.52,38.23,53.52,152.92-30.58,160.57-35.68,142.73-474.06,142.73-474.06Z" transform="translate(0.5 0.5)"/>
          <path class="cls-6" d="M977.77,1137.71c-48.43-40.78-270.15-39.81-270.15-39.81l-23-120.76-100.51,63.57c-18.17,41.45-33.6,84.33-47,127.44,1.88,48.3,8.61,92.51,12.44,102.1,21.75,47.16,91.19,188.68,109.22,221.66-60.28-39.44-46.25-31.16-81.18-91.68l-68.82-30.58-4.47.65c12.21,64.89,40.47,182.85,50.35,182.85,12.74,0,89.2-17.84,96.85-10.19s38.23,53.52,38.23,53.52,27.7-5.54,60.12-12.3c31-6.62,62.26-12.81,93-20.83,10.34-2.12,8.53-4.91,12.14-13.64,40.73-123.91,91.27-303.16,123.22-411.6Z" transform="translate(0.5 0.5)"/>
        </g>
        <path class="cls-6" d="M1399.91,1319.08c7.09,167.85-70.92,231.68-70.92,231.68L1291.16,1338Z" transform="translate(0.5 0.5)"/>
        <path class="cls-6" d="M890.12,368c2.18,159.35-74.22,255.4-74.22,255.4l34.93,115.7s-69.86,107-43.66,133.16,100.41,120.06,96.05,141.89-43.66,122.25-43.66,122.25l185.55-30.56,209.56-382s61.13-240.13,24-275S1178.27,320,1145.52,320,890.12,368,890.12,368Z" transform="translate(0.5 0.5)"/>
        <g>
          <path class="cls-8" d="M794.35,1662.47l-26.59,121.6s88.6,19.43,109.58,30.87,324.19,32.42,343.26,32.42,119.61-60.71,119.61-60.71,73.3-64.5,54.71-100.57c-17.29-33.53-16.53-90.14-24.19-108.85-45.69-111.67-24.93-222.91,3.11-276.94,8.1-15.6,79.41-211.93,62.24-299.65s-91.53-251.72-91.53-251.72-47.68-38.14-59.12-40-185,45.76-196.42,47.67-97.25,55.3-152.55,131.58c0,0-114.42,251.72-110.61,261.26s44.2,202.77,46.11,210.4S794.35,1662.47,794.35,1662.47Z" transform="translate(0.5 0.5)"/>
          <g>
            <path class="cls-6" d="M1162.15,1784.24Z" transform="translate(0.5 0.5)"/>
            <path class="cls-6" d="M1038,1780.45c-12.14-32.12,1.06-73.59,32.1-90.7-12-9.9-26.26-19.48-39.59-29.71l.09-.11c81.56,24.46,170.09,28.55,252.64,12.08a539.66,539.66,0,0,1-250.93-14.16c12.09-15.39,25.51-34.26,21.92-54.94,7.11-1.48,13.73-3,19.77-4.37l-.3-2.13c-7.19.36-14.22.57-21.1.67-3.54-10-12.49-17.41-13.35-28.32-3.73-33.4,42.08-57.27,28.77-91.7a625.06,625.06,0,0,0,202.08-97.55,672.71,672.71,0,0,1-203.32,95.07c-4.86-8.91-14.18-15.9-24.2-13.78q15.18-30,27.74-61.11c37.84-19.93,76.5-42.57,110.08-64.07-33.45,19.64-71.64,41-108.6,60.27,7.86-19.79,14.77-40,21-60.24,21-40.4,56.68-70,81.06-103.93,27.1-35.32,54.55-81.74,72.18-120.47a701.91,701.91,0,0,1-117.84,170.45c7.89-11.7,12.74-18.93,12.74-18.93l95.64-227.24c-133.33-100.59-199.08-174.39-245.47-208.6-19.07,17.88-38.21,38.53-54.64,61.2,0,0-114.42,251.72-110.61,261.26s44.2,202.77,46.11,210.4c1.2,4.8-29.76,123.09-52.93,210.34,5.53,18.73,11.05,33.6,16.52,43.38,0,0,19.65-16.89,45.49-39.36,50.59,15.88,114.12,25.58,169.57,25a11.31,11.31,0,0,1,.62,2,861.61,861.61,0,0,1-124.77,15.26c33.06,17.85,66.63,32.29,101.76,42.79a14.46,14.46,0,0,0-1,1.29c13.41,10,26.78,19.41,39.4,29-29.84,18.28-41.92,59.12-30,90.84-81-6.73-165.14-23.86-245.25-49.31l-.1,2.27c80.19,26.23,164.73,43.34,246.15,49.08a70.8,70.8,0,0,0,6,11.35c-7.93,11.43-12.27,25.63-13.26,40.06l.65.06c1.16-14.49,5.71-28.71,13.87-40.1a79.91,79.91,0,0,1-5.92-11.28c37.83,3.09,88.28,3.42,123.37,1.76l-31.47.35C1101.17,1784.39,1068.47,1783.11,1038,1780.45ZM1061.86,1599q-4,.83-8.14,1.67c-.14-.52-.28-1-.43-1.55C1056.12,1599.07,1059,1599,1061.86,1599Zm27.77-260.22c-.47,1.44-1,2.88-1.41,4.33-5.79,18.31-12.49,36.59-19.65,54.5-9.54,5-19.68,10.2-29.35,15.06C1054.81,1390,1073,1363.3,1089.63,1338.75Zm-87.78,126.61c4.32-5.19,17.54-24,34.21-48.14,10.15-5,20.88-10.47,31-15.78,0,0,0,.07,0,.11-8.94,21.66-18.92,42.81-29.58,63.77,10.19-5.37,21.17-.08,26.68,10a712.65,712.65,0,0,1-91.68,18.22C987.24,1480.05,998.3,1469.62,1001.85,1465.36Zm26,131.54c-47.61-.93-103.6-10.11-146.62-22.91,28-24.37,63.29-55.23,88.66-78.18a646.16,646.16,0,0,0,95.48-18c14.07,46.55-57.3,64-15.51,119.34Q1038.55,1597.22,1027.84,1596.9Zm-13.14,55.4c-26.57-9.4-52.24-19.75-78.11-33.75h0a813.82,813.82,0,0,0,115.17-15.13c3.33,20.29-10,38.55-21.84,53.67C1024.89,1655.5,1019.76,1653.93,1014.7,1652.3Z" transform="translate(0.5 0.5)"/>
            <path class="cls-6" d="M1351.3,1669.52c-79.47,41.67-181.52,59-264.82,50.07,85.37,10.92,186.22-5.48,267.08-48.27-41.31,45-105,77.66-161.27,87.07,65-9.68,129-45.13,173.46-96.21Z" transform="translate(0.5 0.5)"/>
            <path class="cls-6" d="M1102.15,1576.27c93.93-21.19,184.78-80.31,242.4-157.58,0,0,0-.1,0-.15-41.08,51-98.6,96.82-157.88,125.69C1161.08,1557.05,1128.55,1569.13,1102.15,1576.27Z" transform="translate(0.5 0.5)"/>
          </g>
        </g>
        <path class="cls-7" d="M738.55,807.8C678,882.15,611.89,1028.09,611.89,1028.09s101.88,165.21,112.9,165.21S901,1152,901,1152l101.88-247.82Z" transform="translate(0.5 0.5)"/>
        <g>
          <path class="cls-9" d="M560.78,1050.23c-3.81-24.8-28.6-99.17-28.6-110.61s37-124.66,38.9-118.93S673.71,789.31,673.71,795s-.42,211.33-.42,211.33Z" transform="translate(0.5 0.5)"/>
          <g>
            <path class="cls-5" d="M1090.92,800.41c-53.39-5.72-135.39,74.37-146.84,91.54S858.27,1035,833.48,1054s-61,97.25-61,97.25-40.05,7.63-42,13.35c0,0,5.73-40-7.62-43.86s-30.52-42-26.7-51.49,0-62.93-5.72-66.74,11.44-34.32,11.44-34.32-82-26.7-87.72-26.7-114.42,91.53-114.42,91.53S537.9,1096,536,1130.32s6.87,105.43,12.59,113.06S613.26,1365,613.26,1365s41.39,82.91,41.39,90.54,113.32,100.28,119,100.89c53.4,5.73,304.62-199.52,385.47-377.7,16.22-35.76,77.45-143.17,77.45-143.17S1223,900,1217.3,867.56,1090.92,800.41,1090.92,800.41Z" transform="translate(0.5 0.5)"/>
            <path class="cls-6" d="M714.16,1329.05c.19,3.92.73,16.36.75,16.81-7.24-61.3,1.72-126.87,24.24-186.19,1.11-.39,2.29-.78,3.52-1.17C722.6,1213.1,712.47,1272.2,714.16,1329.05Zm66.27-194.12c-.81,1.62-1.58,3.15-2.28,4.57-6.89,105.92,6.61,217.12,39.08,315.69.19.69-4.7-17.23-6.27-22.9C786,1337.77,775.55,1234.29,780.43,1134.93Zm67.24,92.79c5-78.92,23.74-163,52.63-236.63.19-.43-4.48,10.15-5.92,13.48C864.94,1073.5,848.31,1153,847.67,1227.72Zm71.26-264.57c-27.23,130.7-22.59,277.28,12.86,406,.19.88-4.06-18.27-5.38-24.11C900.13,1222.05,897.59,1086.69,918.93,963.15Zm174.59,43.71c-1.91,106.33-14.81,219.34-36.92,325.74l2.59-3.06c22.88-100.11,35-206.19,34.42-307.19C1093.55,1012.38,1093.52,1006.86,1093.52,1006.86ZM629.19,1216.93c13.68-45.07,39.06-89.73,71.12-126-.41-1-.78-2-1.14-2.92C665.36,1124.39,640.17,1170,629.19,1216.93Zm46.15-68.52c-6.16,9.89-33,63.14-38.08,72.92,3.69-6.66,19.61-35.62,31-55.81-29.12,91.59-22.76,206.94,12.25,293.38A547.54,547.54,0,0,1,665.05,1405C646,1324.85,649.85,1228,675.34,1148.41Zm-38.86,74.31,0-.06C636.46,1222.74,636.46,1222.75,636.48,1222.72Zm.78-1.39-.78,1.39C636.29,1223.16,636.58,1222.63,637.26,1221.33ZM692.1,988.59c.25-.64.51-1.28.78-1.93-53.73-2.4-110.22,15.29-151.24,48.71-.4.27,7.48-4.91,9.84-6.49C592.33,1002.93,643,988.7,692.1,988.59Zm-155,131.61c16-38.87,45.58-76.08,80.14-100.55,9.07-6.78,22.34-14.49,31.54-19.16C597.49,1020.79,553.81,1067.61,537.12,1120.2Zm66.53-7.94c-12.32,79.11-10.09,163.74,5.54,244.85l4.07,7.86s.31.61.85,1.71C597.6,1282.75,593.82,1195,603.65,1112.26Zm113.47,254.35c-6.21,54.8,2.7,113.28,24.07,165.79l4.58,3.65C724.15,1482.37,713.87,1423,717.12,1366.61Zm58.9,74.47c-1.58-2.62-6.56,100.12-4.73,97.65C772.87,1541.34,777.85,1438.61,776,1441.08Zm263.34-627.46c-.74,3.92-2.33,12.3-2.91,15.43-15.94,89.06-16,186.78-.15,275.59-12.37-94.06-11.25-197.19,3.14-291.06Z" transform="translate(0.5 0.5)"/>
            <path class="cls-6" d="M867.73,1176.42l-30.83-107.9,46.24-48.82L946.26,936l-31.39,2.87c-27.2,43.65-65.06,102.57-81.39,115.14-24.79,19.07-61,97.25-61,97.25s-40.05,7.63-42,13.35c0,0,5.73-40-7.62-43.86-10.85-3.1-24.22-28.87-26.8-43.54l-.48,1.55c-7.71,7.71,23.12,74.51,23.12,74.51l12.84,84.78,86.15,29.31Z" transform="translate(0.5 0.5)"/>
          </g>
        </g>
        <g>
          <path class="cls-4" d="M783.9,1046.41c47.67,24.79,72.46,129.68,74.37,143s-21,68.65-26.7,68.65-78.18-9.53-83.9-19.06-13.35-85.82-13.35-85.82l-26.7-55.3s28.61-38.14,34.33-40.05S783.9,1046.41,783.9,1046.41Z" transform="translate(0.5 0.5)"/>
          <g>
            <path class="cls-6" d="M809.58,1205.81v49.47l-21.2-11.78L771.89,1194l-2.36,49.47s-3.63,1-8.71,2c20.43,6.23,57.89,11.41,68.34,12.37Z" transform="translate(0.5 0.5)"/>
            <path class="cls-6" d="M840.21,1231.72l-10.93,26.21c1.09.1,1.87.15,2.29.15,4.75,0,21.3-38,25.72-58.63l-19.44-33.69,16.15,40.7-6.72,13.48-21.21-33Z" transform="translate(0.5 0.5)"/>
          </g>
        </g>
        <g>
          <path class="cls-9" d="M981.37,246c-39.26,75.39-55,136.64-55,141.35S932.69,469,932.69,469s-12.57,36.12-14.14,62.82,48.69,205.74,70.67,223c0,0,127.22,6.28,229.3-72.24l70.67-77s29.84-197.88-1.57-274.84-183.75-120.93-194.74-119.36S981.37,246,981.37,246Z" transform="translate(0.5 0.5)"/>
          <g>
            <path class="cls-6" d="M954.66,476.91c-12.55,9.54-11.9,24.49,1.25,33C968.46,500.36,967.81,485.42,954.66,476.91Z" transform="translate(0.5 0.5)"/>
            <path class="cls-6" d="M1119.4,526.18c-9.16-14.66-37.06-20.48-37.06-20.48s-22.61,8.52-28.93,22.75C1076.6,516.66,1100.35,519.51,1119.4,526.18Z" transform="translate(0.5 0.5)"/>
            <path class="cls-6" d="M942,398c21.18,3.63,42.78,22.92,53.56,50-6.6-44.18-45.36-70.64-72.48-49.48C928.29,397.36,936.21,396.69,942,398Z" transform="translate(0.5 0.5)"/>
            <path class="cls-6" d="M1179.26,470.09c-28.64-51.39-94.55-61.31-131.15-19.76,38-28.68,100.4-18.62,132.07,21.28Z" transform="translate(0.5 0.5)"/>
            <path class="cls-6" d="M1002.71,596.66c2.8,0,5.24-.33,6.94-.47-20.1-.86-45-8.68-62-22.81,22.77-24.61,39.21-59.45,44.43-90.29-9.67,30-29.8,64.05-53.72,91.48C955.6,589.15,982.3,597.86,1002.71,596.66Z" transform="translate(0.5 0.5)"/>
            <path class="cls-6" d="M1091,642.05c-5.14-9.28-18.41-14.62-28.37-11.32,4.92,2.28,10.63,5.25,15.78,8-33.29,14.65-75.07,14.53-108,2.18-4.71-1,3.31-1.1,4-9.26-1.83,8.7-12.31,7.69-7.22,9.95,32.09,20.52,80.16,20,112.57-2.15,5.11,2.7,9.39,5.14,13.56,7.63A23,23,0,0,0,1091,642.05Z" transform="translate(0.5 0.5)"/>
            <path class="cls-6" d="M1029.9,676.19c-15.69,4-34.12.78-47.43-8.32,9.16,17.71,36.86,21.79,50.69,7.38C1033.29,675.22,1030.69,675.94,1029.9,676.19Z" transform="translate(0.5 0.5)"/>
          </g>
          <path class="cls-6" d="M1562.56,1027.05c-32.58,5.77-71.76-108-39.52-123.75-33.9-19.64-58.62-74-67.68-96.38,6,12.39,20.5,32.13,51.62,33-50.86-21.94-26.73-108.62-20.93-152.78,6.44,41.38,20.29,80.29,48.62,114.42-27.92-37.74-39.8-80.55-44.5-125.69,17.75-56.6,9.41-152-2.53-209.94-4.12-96.84-54.47-182.51-117.86-254.13-65.17-76.23-84.37-102.35-186.33-65.14-9.8-3.73-22.55-8.25-34.37-12.05a122,122,0,0,0-42.59-17.31c-30.36-6-63.17.42-87.86,16,27.48-12,61.55-15.78,92.21-8.17-61.13,6.58-104.51,72.51-170.06,64.45-16.61-1-42.18-2.1-49.47-18.17,11.43,28.09,64.62,26.53,90.94,20.6-50.38,28.41-94.79,76.87-117.08,128.58,24.16-45.14,64.85-88.17,109.61-116.29-52.14,41.43-88.1,115-121.37,168.76,1.66,3.61-8,118.88,60.52,188.27-6.36-60.11,27.67-78.29,16.93-117.66,55.58-16.35,106.09-51.23,141.29-97.26-21.54,43.65-52.2,86.48-97.05,107.83,74.7-9.68,117.58-85.91,130.61-154.15-6.68,57.11-32.89,113.09-72.93,153.54,48.52-38.92,77.9-102.24,78.66-164.66,50,69.59,36.92,178,92.61,245.85,2.33,53.28-39.6,101.48-76.56,134.59,31.52-18,57-48.3,71.55-82.6-10.72,46-37.61,88.12-75.7,116.32-14.93,1.46-34.63,0-46.67-1.91a100.34,100.34,0,0,0,19.92,10c-16.88,2.87-34.8,10.7-47.67,21.07-.26.09,7.24-.48,9.14-.64-14.45,8.32-29.5,19.63-40.19,30.9-22.5,6.49-45.42,16.46-67.22,27.46l8.52,4.63c-19.06,11.68-49.53,31-69.74,43.75,15-1.08,42.3-1.44,57.77-4.4-30.51,35-60.43,86.36-69.47,128.65a230.9,230.9,0,0,1,16.09-32.14A212.35,212.35,0,0,0,887,993.09c2.88-89.14,74-153.94,159.93-170.1,29.21-6.17,62-1.72,90.47-10.79-53.54,20.89-145.53,23.83-143.81,96.27,7.08-84.05,123.43-60.83,171.08-107.91,25.9,13,67.9,29.62,75.78,59.63-24.38,57-28.12,162.66,56.67,159.39-43.1.94-64.87-37.66-66.59-77.19,11.8,50.62,86.39,44.44,103,92.47,10,35.89-35.47,86-58.89,112.88a140.12,140.12,0,0,1-91.68,5.55c26.27,10.27,55.78,11.13,82.94,3.43-14.85,15.24-29.4,31.29-31.77,53.14-1.33,36.26,28,49.93,59.43,37.36,6.5-1.49,18.07-1,14.47,8.55a146.76,146.76,0,0,0-9.15,21.1c-28.68,21.74-57.8,65.41-30.82,96.38-19.25-34.58,2-59.44,27.11-83.8-14.34,60.56-8.46,144.75,59.29,166.39-37-16.15-57.53-55.24-59.17-96.19,11.21,45.09,28.27,57.3,77.24,71.44,13.14,45.73,45.84,28.37,10.92,115.69,139.71-85.13,32.88-168.67,54.27-232.43,10.25,51.1,44,40.06,92.9,48.52-59.29-18.93-65.31-82.78-55.08-143.08,8.2,21.73,40.36,39.27,55.34,55.94-21.65-28.88-29.38-54.08-30.54-78.4,104.78-38.26-7.09-127.6,1.21-206.86C1520.3,1014.6,1531.29,1035.56,1562.56,1027.05Zm-51.87,96.32c2.92,30.56,15.18,61.65-10.42,72-1.47-43.79-18.06-159-17-162.73C1495.49,1068.67,1506.32,1102.76,1510.69,1123.37Z" transform="translate(0.5 0.5)"/>
        </g>
        <g>
          <path class="cls-6" d="M993.82,588.32s13.12-1.64,16.4,6.56,41,160.73,41,160.73-1.64,105,19.69,119.73c0,0-49.21,73.81-44.29,85.29s3.28,73.81,3.28,73.81-68.88-9.85-78.72-23-18-86.92-18-86.92,41-83.65,42.65-88.57,39.36-96.77,39.36-96.77Z" transform="translate(0.5 0.5)"/>
          <path class="cls-6" d="M726,879.68c16.4,37.72,64.43,102.27,77.55,107.19s52.49,14.76,59.05,18,62.32-73.8,62.32-73.8-31.16-67.25-39.36-67.25S726,879.68,726,879.68Z" transform="translate(0.5 0.5)"/>
          <g>
            <path class="cls-10" d="M786.72,895c11.48,59.05-4.92,101.69-4.92,114.81s41,52.49,80.36,21.33C887.52,1011.08,890,916.35,890,916.35L872,857.3Z" transform="translate(0.5 0.5)"/>
            <path class="cls-6" d="M790.65,945.43c30.67-1.28,60.21-10,60.21-10L837,1003l23.85-61.62,25,23.82A480.33,480.33,0,0,0,890,916.35L872,857.3,786.72,895A222.24,222.24,0,0,1,790.65,945.43Z" transform="translate(0.5 0.5)"/>
          </g>
          <path class="cls-11" d="M798.64,534.19c-4.92,0-72.16,83.65-82,111.53s-14.77,150.9-11.48,159.1,19.68,75.44,23,80.36,42.64,49.21,49.2,47.57,70.53,1.64,93.49-37.73c0,37.73,18,65.61,31.16,62.33S944.62,941,946.26,936s14.76-59,23-67.25,52.48-103.33,55.76-123-29.52-144.33-31.16-157.45-95.13-47.57-95.13-47.57S803.56,534.19,798.64,534.19Z" transform="translate(0.5 0.5)"/>
          <path class="cls-4" d="M956.22,778.36l-19.88-41.74,17.89-29.82,1.63-142.63c-26.51-12.12-57.17-23.42-57.17-23.42l-32.77-2.24C877.08,594.38,862.79,677,862.79,677l11.93,35.78S823,740.59,821,750.53c-1.52,7.62-42.75,86.46-95,129.15a29.51,29.51,0,0,0,2.11,5.5c3.28,4.92,42.64,49.21,49.2,47.57s70.53,1.64,93.49-37.73c0,37.73,18,65.61,31.16,62.33S944.62,941,946.26,936s14.76-59,23-67.25c1.73-1.73,5.06-7.33,9.27-15.26Z" transform="translate(0.5 0.5)"/>
          <path class="cls-6" d="M870.81,895c-26.24-26.24-31.16-93.48-31.16-93.48s30.15-13.24,35.07-13.24,53.49,21.44,53.49,21.44L942.31,836S923.29,880.26,870.81,895Z" transform="translate(0.5 0.5)"/>
          <g>
            <path class="cls-6" d="M838,721.4a130,130,0,0,0-60.44-34.94C801.7,667.44,842.36,690.94,838,721.4Z" transform="translate(0.5 0.5)"/>
            <path class="cls-6" d="M996.59,740.27c-17.13-4.71-39.42-1.84-54.8,7.06C942.55,718,988.42,712.09,996.59,740.27Z" transform="translate(0.5 0.5)"/>
          </g>
          <path class="cls-6" d="M798.64,534.19s-18-9.84-23-8.2-70.52,45.93-106.61,50.85c0,0-119.73,223.06-119.73,239.46S580.5,918,580.5,927.83s-1.64,73.8-1.64,73.8,55.77-4.92,86.93-32.8c29.52-8.2,68.89-86.93,68.89-86.93s-14.76-123-16.4-142.69S728.12,626,728.12,626Z" transform="translate(0.5 0.5)"/>
        </g>
        <g>
          <path class="cls-9" d="M493.51,1413c17.84-25.48,17.84-33.13,17.84-33.13s61.17,20.39,63.72,30.58,20.39,48.43,20.39,48.43-35.68-2.55-45.88-7.65S519,1425.72,519,1425.72s25.48,38.23,35.68,43.33,28,15.29,38.23,17.84,63.72,17.84,63.72,17.84l22.94,25.48-22.94,2.55,40.78,33.14H674.47L712.7,1599l-73.91-7.65-51.89,17.93-47.51-30.67s-67.14-61.31-68.82-71.36C457.83,1430.81,493.51,1413,493.51,1413Z" transform="translate(0.5 0.5)"/>
          <g>
            <path class="cls-6" d="M559.87,1507.66c27.75,15.71,62.22,23.69,93.92,21.92A239.58,239.58,0,0,1,552,1503C552.81,1503.49,557.73,1506.55,559.87,1507.66Z" transform="translate(0.5 0.5)"/>
            <path class="cls-6" d="M555.1,1571.29c27.75,15.71,49.76,21.85,81.46,20.09-34.4-.93-58.83-8.72-89.3-24.71C548,1567.13,553,1570.18,555.1,1571.29Z" transform="translate(0.5 0.5)"/>
            <path class="cls-6" d="M661.71,1562.64a744.62,744.62,0,0,1-111.5-19.89c34.92,12.18,79.14,19.93,116.12,20.35Z" transform="translate(0.5 0.5)"/>
            <path class="cls-6" d="M534.54,1514.43c-1.76-2-10.32-10.33-13.89-13.59,8.7-5.63,13.86-17.57,12.24-27.19,0,10.16-6.39,21.48-15.66,26.94C521.38,1504.28,531.58,1512.33,534.54,1514.43Z" transform="translate(0.5 0.5)"/>
            <path class="cls-6" d="M530.6,1555.07c-.76-.61-1.73-1.32-2.47-2-.1,0,0-.12,0-.17,7.8-11.26,10.2-26.75,7.56-38.52a68.4,68.4,0,0,1-10.06,39.09c2.92,2.24,13.71,8.92,14.76,9.55C540.75,1563.27,533.09,1557,530.6,1555.07Z" transform="translate(0.5 0.5)"/>
          </g>
        </g>
      </g>
      <g>
        <g>
          <circle class="cls-12" cx="663.05" cy="398.54" r="124.91" transform="translate(-87.11 586.08) rotate(-45)"/>
          <path class="cls-6" d="M823,490.41a206.49,206.49,0,0,1-66.69-25c21.62-24.84,33.56-57.82,28.27-91.28-9.68-88.23-106.93-134.37-181.77-91.74,14.89-15.67,31.46-28.2,46.73-38.19-39.57,22.21-80.48,60.4-94.08,107.5-25.73,73.17,29.16,154,108.12,156.09,34.2,1.19,66.71-14.47,89.6-38.93C773.85,482.61,798.8,490.61,823,490.41ZM572.74,447.32C540.19,395.4,560.29,329.67,598.33,288c15-14.61,41.19-17.77,64.38-18.23,73.43-.37,129.64,70.08,114.28,142.1a115.45,115.45,0,0,1-25.9,50.42,195.08,195.08,0,0,1-26.69-19.93,117.82,117.82,0,0,0,23.8,23.05C701.07,514.48,614.77,513.93,572.74,447.32Z" transform="translate(0.5 0.5)"/>
        </g>
        <g>
          <path class="cls-10" d="M613.08,403.66c-9-5.85-18.28-26.77-18.78-40.77,19.34-12.26,68.05,2.74,76.34,19.33,0-43.12,27.34-62.34,27.34-62.34s46.89,46.91-3.65,124.69C672.05,441.27,635.83,422.22,613.08,403.66Z" transform="translate(0.5 0.5)"/>
          <path class="cls-1" d="M638.36,405.1c-15.91-.55-30.36-16.33-29.51-32.23A175,175,0,0,1,638.36,405.1Z" transform="translate(0.5 0.5)"/>
        </g>
      </g>
    </g>
  </g>
</svg>
